<svg width="32" height="32" viewBox="0 0 32 32" fill="none" xmlns="http://www.w3.org/2000/svg">
  <style>
    .navy { fill: #121B33; }
  </style>
  
  <!-- Polished Gear Shape -->
  <path class="navy" d="M16 6.5C14.067 6.5 12.5 8.067 12.5 10C12.5 11.933 14.067 13.5 16 13.5C17.933 13.5 19.5 11.933 19.5 10C19.5 8.067 17.933 6.5 16 6.5ZM16 11.5C15.1716 11.5 14.5 10.8284 14.5 10C14.5 9.17157 15.1716 8.5 16 8.5C16.8284 8.5 17.5 9.17157 17.5 10C17.5 10.8284 16.8284 11.5 16 11.5Z"/>
  <path class="navy" d="M16.75 3.5H15.25V5.5H16.75V3.5Z"/>
  <path class="navy" d="M16.75 14.5H15.25V16.5H16.75V14.5Z"/>
  <path class="navy" d="M22.5 9.25V10.75H20.5V9.25H22.5Z"/>
  <path class="navy" d="M11.5 9.25V10.75H9.5V9.25H11.5Z"/>
  <path class="navy" d="M21.0531 5.31066L19.9924 6.37132L21.0531 7.43198L22.1137 6.37132L21.0531 5.31066Z"/>
  <path class="navy" d="M12.0076 13.3713L10.9469 14.432L12.0076 15.4926L13.0683 14.432L12.0076 13.3713Z"/>
  <path class="navy" d="M10.9469 5.31066L12.0076 6.37132L10.9469 7.43198L9.88624 6.37132L10.9469 5.31066Z"/>
  <path class="navy" d="M19.9924 13.3713L21.0531 14.432L19.9924 15.4926L18.9317 14.432L19.9924 13.3713Z"/>

  <!-- Stylized "M" corresponding to the logo font -->
  <path class="navy" d="M5 18H10L13.5 24L17 18H22V30H18V22L14 29H13L9 22V30H5V18Z" fill-rule="evenodd" clip-rule="evenodd"/>
  
  <!-- Stylized accent bar -->
  <rect x="5" y="15" width="22" height="1.5" rx="0.75" class="navy" opacity="0.2"/>
</svg>
